<?xml version="1.0" encoding="utf-8"?>
<!-- Generator: Adobe Illustrator 25.3.1, SVG Export Plug-In . SVG Version: 6.00 Build 0)  -->
<svg version="1.1" id="Capa_1" xmlns="http://www.w3.org/2000/svg" xmlns:xlink="http://www.w3.org/1999/xlink" x="0px" y="0px"
	 viewBox="0 0 864 1008" style="enable-background:new 0 0 864 1008;" xml:space="preserve">
<style type="text/css">
	.st0{fill:#FFFFFF;}
</style>
<g>
	<g>
		<path class="st0" d="M579.4,327c-17.8,0-32.3,14.5-32.3,32.3c0,17.8,14.5,32.3,32.3,32.3c17.8,0,32.3-14.5,32.3-32.3
			C611.7,341.4,597.3,327,579.4,327z"/>
		<path class="st0" d="M435.9,368.4c-74.8,0-135.6,60.8-135.6,135.6c0,74.8,60.8,135.6,135.6,135.6c74.8,0,135.6-60.8,135.6-135.6
			C571.5,429.2,510.7,368.4,435.9,368.4z M435.9,590.9c-47.9,0-86.9-39-86.9-86.9s39-86.9,86.9-86.9c47.9,0,86.9,39,86.9,86.9
			S483.8,590.9,435.9,590.9z"/>
		<path class="st0" d="M543.6,779.3H323.7c-91.2,0-165.4-74.2-165.4-165.4V394.1c0-91.2,74.2-165.4,165.4-165.4h219.9
			c91.2,0,165.4,74.2,165.4,165.4v219.9C709,705.1,634.8,779.3,543.6,779.3z M323.7,280.5c-62.6,0-113.6,51-113.6,113.6v219.9
			c0,62.6,51,113.6,113.6,113.6h219.9c62.6,0,113.6-51,113.6-113.6V394.1c0-62.6-51-113.6-113.6-113.6H323.7z"/>
	</g>
</g>
</svg>
